<?xml version="1.0" encoding="utf-8"?>
<!-- Generator: Adobe Illustrator 27.2.0, SVG Export Plug-In . SVG Version: 6.00 Build 0)  -->
<svg version="1.1" id="Capa_1" xmlns="http://www.w3.org/2000/svg" xmlns:xlink="http://www.w3.org/1999/xlink" x="0px" y="0px"
	 viewBox="0 0 1920 633.91" style="enable-background:new 0 0 1920 633.91;" xml:space="preserve">
<style type="text/css">
	.st0{fill:#B3B2B3;}
	.st1{fill:url(#SVGID_1_);}
	.st2{fill:url(#SVGID_00000131331983087868160790000010571832704606819465_);}
</style>
<g>
	<g>
		<g>
			<path class="st0" d="M504.85,236.76c1.59,4.8,2.6,9.82,2.5,14.92c-0.17,3.3-0.72,6.57-1.52,9.79c-1.36,4.78-3.52,9.29-6.16,13.5
				c-5.02,7.83-11.88,14.44-19.76,19.35c-9.25,5.87-20.21,7.84-30.13,12.19c-24.22,9.85-48.33,23.55-63.5,45.51
				c-6.06,12.07-7.56,26.69-3.32,39.59c2.7,8.15,8.2,14.97,14.51,20.64c-7.95-1.77-13.54-8.03-18.44-14.08
				c4.19,13.78,12.56,26.07,23.39,35.5c3.73,3.34,7.82,6.26,12.02,9.01c10.93,7.07,23.11,11.98,35.52,15.81
				c-6.83-0.46-13.62-1.22-20.36-2.25c-9.49-1.55-18.7-4.42-27.49-8.27c17.43,15.44,40.4,25.04,63.82,24.8
				c9.42,0.01,18.71-1.95,27.63-4.86c-2.87,1.58-5.71,3.2-8.52,4.84c-9.48,5.33-18.76,11.03-28.25,16.32
				c-4.98,0.12-9.61,2.15-14.5,2.85c-23.84,3.96-48.5-0.81-70.38-10.62c-18.09-8.21-34.95-20.02-46.96-36.02
				c-8.45-11.26-14.11-25.35-12.59-39.64c0.58-7.29,3.54-14.05,6.73-20.54c-11.81,8.42-18.55,21.83-23.71,35
				c1.11-20.89,4.89-41.94,13.69-61.03c5.49-12.19,13.48-23.24,23.75-31.83c-8.55,2.94-15.7,8.76-22.2,14.86
				c-13.6,13.01-24.62,28.44-34.29,44.52c1.71-19.61,7.25-39.67,20.22-54.9c12.75-15.39,31.87-24.24,51.3-27.41
				c-9.8-0.27-19.65,1.05-29.08,3.75c-9.01,2.59-17.18,7.26-25.14,12.11c6.23-7.89,13.63-15.1,22.8-19.46
				c18.99-9.38,40.7-10.31,61.5-10.3c24.73,0.76,49.81,1.66,74.23-3.16c15.51-3.13,31.2-9.95,41-22.9
				c5.4-7.18,9.35-15.63,10.48-24.6C504,238.75,504.41,237.74,504.85,236.76z"/>
		</g>
		<linearGradient id="SVGID_1_" gradientUnits="userSpaceOnUse" x1="164.8771" y1="345.4776" x2="504.8472" y2="345.4776">
			<stop  offset="0" style="stop-color:#F16922"/>
			<stop  offset="1" style="stop-color:#ED2724"/>
		</linearGradient>
		<path class="st1" d="M493.86,234.58c-17.49-2.91-35.07-5.36-52.46-8.94c-7.85-1.77-15.88-3.25-23.25-6.57
			c-3.52-1.43-5.06-5.16-7.45-7.83c-4.3-4.32-9.66-7.38-15.28-9.64c-11.75-4.25-24.12-6.98-36.65-6.95
			c3.61-1.07,7.26-1.98,10.99-2.51c1.73-0.04,3.48-0.07,5.24-0.1c-1.68-2.98-3.2-6.04-4.22-9.3c-2.8-9.32-1.56-19.44,2.25-28.29
			c-10.92,3.91-21.58,8.99-30.27,16.78c-3.64,3.16-6.94,6.7-9.95,10.46c-1.88,2.34-3.62,4.79-5.27,7.29
			c-2.66,4.02-4.89,8.3-7.16,12.53c-0.78-3.78-1.52-7.58-2.08-11.4c-1.1-7.63-1.59-15.33-1.5-23.02c0.05-3.21,0.21-6.43,0.46-9.61
			l0.1-1.07c1.09-10.53,3.51-21.04,8.23-30.56l-0.69-0.19c-17.15,5.77-33.18,15.42-45.31,28.96c-1.3,1.44-2.58,2.9-3.78,4.42
			c-6.96,8.87-12.41,18.88-16.17,29.51c-3.12,8.6-4.96,17.61-6.21,26.67c-4.52,2.49-8.9,5.27-12.91,8.51
			c-16.89,13.46-29.8,31.23-40.43,49.89c-10.2,18.04-17.98,37.39-23.8,57.27c-0.12,0.4-0.35,1.2-0.47,1.6
			c-2.59,9.43-4.81,18.95-6.49,28.58c-1.09,6.08-1.99,12.18-2.66,18.31c-0.61,5.47-1.07,10.97-1.36,16.47
			c-0.57,10.28-0.58,20.6-0.04,30.89c0.22,4.39,0.58,8.78,0.94,13.17c2.19-7.72,4.01-15.59,7.42-22.9
			c3.51-7.91,8.47-15.07,13.91-21.77c2.14-2.57,4.57-4.91,7.04-7.17c-0.14,2.12-0.27,4.25-0.45,6.39
			c-1.07,9.05-1.16,18.21-0.85,27.33c0.22,7.89,1.28,15.73,2.52,23.52c0.36,2.1,0.77,4.22,1.21,6.33
			c2.33,11.23,6.32,22.07,11.27,32.4c5.28,10.54,12.34,20.17,20.7,28.48c-4.51-15.78-6.95-32.24-5.17-48.65
			c2.11,7.29,3.68,14.76,6.49,21.84c4.96,12.85,12.05,24.88,21.01,35.34c7.07,8.35,15.25,15.7,24.13,22.08
			c15.21,10.49,32.51,18.1,50.54,22.18c-6.05-6.67-12.65-12.83-18.03-20.08c-5.38-6.74-9.85-14.15-13.79-21.81
			c-4.5-9.28-7.79-19.14-9.66-29.27c-0.26-1.79-0.47-3.57-0.66-5.35c1.46,2.15,2.89,4.32,4.4,6.44
			c11.57,16.22,30.39,26.48,49.93,29.37c20.33,3,41.16-0.47,60.45-7.12c-26.1-0.5-53.06-6.24-74.65-21.61
			c-11.1-7.96-20.42-18.47-26.59-30.67c-5.85-11.44-8.87-24.13-9.79-36.89c-8.98,10.3-16.06,22.29-20.55,35.2
			c-3.33,9.67-5.14,19.91-5.01,30.15c0.09,6.19,0.93,12.35,2.3,18.38c-8.72-6.92-15.39-16.14-20.41-26.01
			c-5.01-10.03-8.18-20.95-9.53-32.09c-1.39-11.25-0.92-22.66,0.74-33.86c-4.72,9.33-9.91,18.42-14.33,27.9
			c-1.6-8.1-1.86-16.4-1.97-24.62c-0.01-8.83,0.4-17.66,1.52-26.41c1.39-11.15,3.69-22.2,7.1-32.92c5.81-18.56,15.13-36,27.48-51.03
			c-20.78,8.48-35.29,26.84-48.06,44.54c2.45-8.63,6.15-16.87,10.59-24.66c12.45-21.62,29.43-40.83,50.04-54.96
			c10.1-6.79,21.16-12.35,33.08-15.02c-13.18,8.3-26.67,19.06-31.41,34.54c17.49-18.72,43.38-25.75,67.8-29.89
			c27.89-4.47,56.17-5.17,84.34-6.46c19.3-1.07,38.82-1.64,57.69-6.19c9.33-2.48,19.61-6.21,24.59-15.14c0.37-1,0.78-2.01,1.21-2.99
			c-2.47-0.61-4.92-1.19-7.4-1.65C496.25,234.9,495.05,234.73,493.86,234.58z M388.51,230.89c-10.51,1.59-21.17,3.57-31.83,2.27
			c-3.37-0.35-6.59-1.66-9.13-3.89c-1.35-2.52-1.16-5.33-0.61-8.04c16.29-3.98,31.17,5.64,46.65,8.79
			C392.33,230.23,389.77,230.66,388.51,230.89z"/>
		
			<linearGradient id="SVGID_00000034795955924432282930000005430926474688812682_" gradientUnits="userSpaceOnUse" x1="331.3792" y1="603.9056" x2="329.5184" y2="192.7402">
			<stop  offset="0.6293" style="stop-color:#B82025"/>
			<stop  offset="0.9865" style="stop-color:#F05623"/>
		</linearGradient>
		<path style="fill:url(#SVGID_00000034795955924432282930000005430926474688812682_);" d="M553.34,144.22
			c-1.95-1.13-3.87-2.25-5.79-3.36c-29.5-17.03-58.96-34.1-88.45-51.12c-40.79-23.59-81.6-47.16-122.37-70.75
			c-3.96-2.6-9.24-2.68-13.21-0.07c-36.56,21.14-73.12,42.27-109.68,63.41c-20.69,11.94-41.37,23.91-62.06,35.87
			c-20.72,11.94-41.42,23.93-62.11,35.91c-5.04,2.94-10.17,5.72-15.13,8.79c-3.36,2.02-5.54,5.79-5.53,9.74
			c-0.15,11.93,0,23.88-0.05,35.81c-0.01,21.99,0,43.98,0,65.98c-0.01,22.15,0,44.32,0,66.48c-0.02,9.2,0.01,18.41,0,27.61
			c-0.05,19.76-0.01,39.52-0.02,59.28c-0.02,10.43,0.05,20.88,0,31.31c-0.12,2.77,0.58,5.46,1.42,8.09
			c5.69,6.26,14.05,9.07,21.01,13.63c1.16,0.67,2.33,1.4,3.51,2.11c33.85,19.54,67.7,39.07,101.53,58.63
			c13.34,7.76,26.71,15.45,40.09,23.16c29.05,16.87,58.17,33.63,87.27,50.42c3.89,2.46,8.95,2.31,12.81-0.14
			c25.93-15,51.9-29.93,77.82-44.95c11.57-6.72,23.21-13.35,34.76-20.11c19.34-11.18,38.7-22.3,58.01-33.53
			c22.75-13.16,45.53-26.25,68.25-39.44c5.24-3.61,12.75-5.46,15.07-12.06c1.29-5.49,0.4-11.23,0.64-16.82
			c-0.01-9.92-0.01-19.85,0-29.77c-0.01-9.91,0-19.82,0-29.73c0-9.92,0-19.85,0-29.77c0-14.5,0-28.99,0-43.49
			c0-15.75,0-31.52,0-47.28c0-7.78,0-15.55,0-23.34c0-9.92,0-19.85,0-29.77c-0.02-7.32,0.04-14.64,0.01-21.94
			c-0.04-1.77-0.06-3.54-0.01-5.28c0-0.66,0-1.95,0-2.59c-0.64-7.01,2.12-15.84-4.03-21.07c-5.8-4.08-12.23-7.19-18.27-10.9
			C563.67,150.17,558.51,147.18,553.34,144.22 M493.56,467.91c-2.87,1.58-5.71,3.2-8.52,4.84c-9.48,5.33-18.76,11.03-28.25,16.32
			c-13.9,7.79-27.38,16.45-42.2,22.43c-5.24,2.18-10.52,4.32-15.95,5.98c-19.29,6.65-40.12,10.12-60.45,7.12
			c-19.54-2.89-38.36-13.15-49.93-29.37c-1.51-2.12-2.94-4.29-4.4-6.44c0.19,1.77,0.4,3.56,0.66,5.35
			c1.87,10.13,5.17,19.99,9.66,29.27c3.94,7.65,8.41,15.07,13.79,21.81c5.38,7.26,11.98,13.41,18.03,20.08
			c-18.03-4.08-35.32-11.68-50.54-22.18c-8.88-6.38-17.06-13.73-24.13-22.08c-8.96-10.46-16.06-22.49-21.01-35.34
			c-2.81-7.08-4.39-14.55-6.49-21.84c-1.78,16.41,0.66,32.87,5.17,48.65c-8.36-8.31-15.42-17.94-20.7-28.48
			c-4.96-10.33-8.95-21.17-11.27-32.4c-0.45-2.11-0.85-4.23-1.21-6.33c-1.24-7.79-2.29-15.63-2.52-23.52
			c-0.31-9.12-0.21-18.27,0.85-27.33c0.17-2.13,0.31-4.27,0.45-6.39c-2.47,2.26-4.89,4.6-7.04,7.17
			c-5.44,6.7-10.41,13.86-13.91,21.77c-3.41,7.31-5.23,15.18-7.42,22.9c0.09,1.65,0.25,3.3,0.46,4.96
			c4.65-9.51,8.54-19.4,13.95-28.53c-0.31,9.76,0.25,19.54,0.66,29.3c0.68,11.21,2.04,22.39,4.35,33.39
			c-6.11-3.51-12.19-7.05-18.29-10.57c-7.71-4.45-15.45-8.88-23.13-13.4c-4.34-2.56-8.72-5.02-13.06-7.57
			c-5.33-3.18-12.9-5.93-13.32-13.21c-0.32-34.82,0.22-69.67-0.19-104.5c0.04-21.92,0.04-43.85,0-65.78
			c0.11-21.52-0.14-43.03,0.12-64.55c0.46-3.94,3.13-7.29,6.59-9.13c18.61-10.74,37.22-21.48,55.8-32.25
			c20.69-11.94,41.37-23.9,62.05-35.86c20.65-11.96,41.36-23.87,62-35.85c6.59-3.75,13.11-7.63,19.7-11.35
			c3.57-2.17,8.24-2.34,11.88-0.22c8.14,4.58,16.18,9.34,24.28,13.99c31.41,18.17,62.85,36.29,94.26,54.48
			c23.04,13.32,46.08,26.66,69.13,39.95c5.08,3.2,10.67,5.64,15.41,9.36c5.49,5.2,3.04,13.38,3.54,20.04c0,2.47,0.01,4.94,0.05,7.42
			c0.07,7.74-0.04,15.47,0,23.21c-0.01,7.79,0,15.58,0,23.37c-0.01,15.44,0,30.89,0,46.33c0,14.45,0,28.91,0,43.38
			c-0.01,10.26,0,20.52,0,30.79c-0.02,9.92,0.01,19.85,0,29.77c-0.24,6.66,0.62,13.41-0.59,20.02c-1.28,3.51-4.31,5.88-7.5,7.57
			C520.69,452.14,507.26,460.27,493.56,467.91z"/>
	</g>
	<g>
		<path d="M850.23,249.88c0,1.16-1.06,1.74-3.17,1.74c-7.91,0-19.92-0.68-36-2.06c-16.09-1.37-28.15-2.06-36.16-2.06
			c-10.13,0-16.04,0.37-17.73,1.11c-3.9,1.8-5.86,6.86-5.86,15.19c0,10.02,2.53,15.72,7.6,17.09c2.11,0.53,5.33,0.79,9.65,0.79
			c7.28,0,18.17-0.4,32.68-1.19c14.51-0.79,25.4-1.19,32.68-1.19c3.48,0,5.22,9.29,5.22,27.85c0,16.14-0.58,25.53-1.74,28.17
			c-0.74,1.9-2.16,2.85-4.27,2.85c1.37,0-1.95-0.37-9.97-1.11c-11.29-1.05-28.38-1.58-51.28-1.58c-7.39,0-11.55,0.05-12.5,0.16
			c-5.38,0.85-8.07,3.11-8.07,6.81c0,14.98,0.63,32.23,1.9,51.75c1.05,17.62,1.58,25.48,1.58,23.58c0,2.74-3.32,4.33-9.97,4.75
			c1.79-0.11-2.9-0.16-14.09-0.16c-19.73,0-32.44-0.69-38.14-2.06c-3.06-0.74-4.59-2.37-4.59-4.91c0-11.71,0.4-29.3,1.19-52.78
			c0.79-23.47,1.19-41.07,1.19-52.78c0-13.93-0.63-31.44-1.9-52.54c-1.9-32.6-2.9-50.11-3.01-52.54l-0.16-1.9
			c-0.11-2.64,1.48-3.96,4.75-3.96c7.81,0,19.6,0.16,35.37,0.47c15.77,0.32,27.62,0.47,35.53,0.47c8.44,0,21.13-0.63,38.06-1.9
			c16.93-1.27,29.62-1.9,38.06-1.9c5.27,0,8.23,2.16,8.86,6.49c0,4.54,0.21,11.34,0.63,20.42c0.21,2.32,0.9,6.81,2.06,13.45
			C849.7,242.24,850.23,246.72,850.23,249.88z"/>
		<path d="M1088.73,309.55c0,32.92-10.5,60.51-31.49,82.77c-21.42,22.58-48.53,33.87-81.35,33.87c-32.6,0-59.66-11.39-81.19-34.18
			c-21.1-22.26-31.65-49.74-31.65-82.45c0-32.81,10.55-60.4,31.65-82.77c21.52-22.89,48.59-34.34,81.19-34.34
			c32.39,0,59.4,11.45,81.03,34.34C1078.13,249.36,1088.73,276.95,1088.73,309.55z M1028.75,309.23c0-15.83-4.8-29.28-14.4-40.36
			c-10.02-11.6-22.84-17.41-38.46-17.41c-14.88,0-27.49,6.01-37.82,18.04c-10.03,11.61-15.03,24.95-15.03,40.04
			c0,16.14,4.69,29.59,14.09,40.36c9.92,11.29,22.84,16.93,38.77,16.93c14.88,0,27.54-5.96,37.98-17.88
			C1023.79,337.56,1028.75,324.32,1028.75,309.23z"/>
		<path d="M1287.03,399.28c0,10.34-0.47,16.46-1.42,18.36c-1.16,2.32-4.75,3.48-10.76,3.48c-0.95,0-3.06,0-6.33,0
			c-3.17-0.11-5.83-0.16-7.99-0.16c-2.16,0-5.38-0.11-9.65-0.32c-4.27-0.21-7.47-0.32-9.58-0.32c-1.69,0-9.28-10.13-22.79-30.39
			c-13.51-20.26-20.52-30.44-21.05-30.54c-2.22,1.8-9.81,12.45-22.79,31.97c-12.45,18.67-19.73,28.33-21.84,28.96
			c-1.48,0.42-5.44,0.63-11.87,0.63c-21.63,0-32.44-1.11-32.44-3.32s-0.13-5.38-0.4-9.5c-0.26-4.12-0.4-7.17-0.4-9.18
			c0-13.08,0.79-20.78,2.37-23.11c0.1-0.1,8.81-11.66,26.11-34.66c14.03-18.57,21.05-29.17,21.05-31.81
			c0-2.64-7.02-13.08-21.05-31.34c-8.86-11.29-17.67-22.63-26.43-34.03c-0.95-1.37-1.53-3.64-1.74-6.81c-0.11-2.22-0.11-5.22,0-9.02
			c0.32-4.54,0.47-7.07,0.47-7.6c0-2.11-0.19-5.38-0.55-9.81c-0.37-4.43-0.55-7.7-0.55-9.81c0-2,1.84-3.01,5.54-3.01
			c2.43,0,6.01,0.16,10.76,0.47c4.75,0.32,8.28,0.47,10.6,0.47c2.11,0,5.22-0.1,9.34-0.32c4.12-0.21,7.17-0.32,9.18-0.32
			c1.69,0,9.36,10.26,23.03,30.78c13.66,20.52,20.81,30.78,21.44,30.78c2.11-1.27,9.86-12.03,23.26-32.29
			c12.76-19.52,20.1-29.28,22-29.28h37.67c3.69,0,5.54,0.9,5.54,2.69v38.46c0,2.74-8.15,14.72-24.45,35.92
			c-16.3,21.21-24.45,32.44-24.45,33.71c0,1.79,7.17,12.19,21.52,31.18c16.88,22.26,25.69,33.92,26.43,34.98
			C1286.29,377.55,1287.03,385.57,1287.03,399.28z"/>
		<path d="M1466.18,246.72c0,2.11-1.16,3.17-3.48,3.17c-4.01,0-19.89-0.79-47.64-2.37c-0.63,26.69-0.95,45.32-0.95,55.87
			c0,12.45,0.5,31.18,1.5,56.18c1,25,1.5,43.73,1.5,56.18c0,2.01-0.47,3.27-1.42,3.8c-0.32,0.21-1.79,0.47-4.43,0.79
			c-6.33,0.84-15.62,1.27-27.85,1.27c-13.61,0-23.16-0.42-28.65-1.27c-2.96-0.53-4.43-2.16-4.43-4.91c0-12.45,0.53-31.12,1.58-56.02
			c1.05-24.9,1.58-43.57,1.58-56.02c0-8.23-0.42-26.59-1.27-55.07c-21.1,2.11-37.93,3.17-50.48,3.17c-1.69,0-2.53-0.53-2.53-1.58
			c0-1.37,0.74-5.43,2.22-12.19c1.69-7.38,2.64-11.87,2.85-13.45c0.32-4.96,0.68-9.92,1.11-14.88c0.74-7.91,2-11.87,3.8-11.87
			c0.21,0,0.95,0.05,2.22,0.16c17.09,2.22,42.36,3.32,75.81,3.32c9.5,0,27.01-1,52.54-3.01c13.71-1.05,20.63-1.58,20.73-1.58
			c2.11,0,3.32,0.13,3.64,0.4c0.32,0.26,0.53,1.29,0.63,3.09c0,2.85-0.11,6.81-0.32,11.87c-0.21,5.59-0.32,9.55-0.32,11.87
			c0,2.64,0.34,6.52,1.03,11.63C1465.83,240.36,1466.18,244.19,1466.18,246.72z"/>
		<path d="M1645.17,371.11c0,4.54-0.9,12.87-2.69,25c-1.9,13.19-3.59,21.05-5.06,23.58c-1.27,2-3.01,3.01-5.22,3.01
			c-0.95,0-2.53-0.16-4.75-0.47c-7.7-1.06-30.18-1.58-67.42-1.58c-8.13,0-20.2-0.06-36.24-0.16c-16.04-0.11-28.07-0.16-36.08-0.16
			c-3.48,0-5.22-1.53-5.22-4.59c0-11.81,0.66-29.57,1.98-53.25c1.32-23.68,1.98-41.44,1.98-53.25c0-12.03-0.63-34.45-1.9-67.26
			c-0.32-8.44-0.9-21.05-1.74-37.82l-0.16-2.22c-0.21-2.43,1.11-3.64,3.96-3.64c7.81,0,19.55,0.21,35.21,0.63
			c15.67,0.42,27.4,0.63,35.21,0.63c7.7,0,19.31-0.21,34.82-0.63c15.51-0.42,27.11-0.63,34.82-0.63c5.48,0,8.65,2.06,9.5,6.17
			c0.53,2.43,1.35,9.79,2.45,22.08c1.11,12.29,1.66,19.76,1.66,22.39c0,2.22-1.06,3.32-3.17,3.32c-0.63,0-1.74-0.05-3.32-0.16
			c-28.07-2.32-53.28-3.48-75.65-3.48c-5.59,0-9.02,1.32-10.29,3.96c-0.53,1.27-0.79,5.33-0.79,12.19c0,7.18,1.05,11.92,3.17,14.24
			c1.79,2.01,5.22,3.01,10.29,3.01c1.05,0,3.11-0.08,6.17-0.24c3.06-0.16,5.59-0.24,7.6-0.24c13.29,0,26.75-0.37,40.36-1.11
			c1.16-0.1,4.06-0.37,8.7-0.79c3.59-0.42,6.43-0.63,8.55-0.63c2.53,0,3.8,1.21,3.8,3.64c0-2.22-0.95,5.86-2.85,24.21
			c-0.85,8.44-1.27,16.88-1.27,25.32c0,2.11-1.53,3.17-4.59,3.17l-14.24-1.58c-6.01-0.63-19.73-0.95-41.15-0.95h-16.77
			c-4.33,0-6.86,1.06-7.6,3.17c-0.11,0.53-0.16,3.8-0.16,9.81c0,8.02,0.53,13.19,1.58,15.51c1.79,4.01,8.55,6.38,20.26,7.12
			c-0.21,0,7.49,0,23.11,0c5.59,0,13.9-0.5,24.93-1.5c11.02-1,19.28-1.5,24.77-1.5C1644.01,365.41,1645.17,367.31,1645.17,371.11z"
			/>
		<path d="M1851.07,384.56c0,1.69-1.11,3.91-3.32,6.65c-19.41,23.11-45.21,34.66-77.39,34.66c-32.92,0-59.61-11.24-80.08-33.71
			c-19.94-21.73-29.91-49.16-29.91-82.3c0-32.07,9.76-59.29,29.28-81.66c20.36-23.42,46.26-35.13,77.71-35.13
			c34.18,0,60.98,10.5,80.4,31.49c2.11,2.32,3.17,4.38,3.17,6.17c0,2.01-3.67,9.44-11,22.31c-7.33,12.87-11.95,20.1-13.85,21.68
			c-0.85,0.85-1.9,1.27-3.17,1.27c-0.53,0-3.17-2.11-7.91-6.33c-5.7-5.06-11.29-9.02-16.78-11.87c-8.34-4.22-16.99-6.33-25.95-6.33
			c-15.51,0-27.91,5.8-37.19,17.41c-8.55,10.76-12.82,24.06-12.82,39.88c0,16.04,4.27,29.49,12.82,40.36
			c9.28,11.82,21.68,17.72,37.19,17.72c9.18,0,17.88-2,26.11-6.01c5.38-2.64,10.87-6.33,16.46-11.08c4.64-4.01,7.23-6.01,7.76-6.01
			c1.05,0,2.11,0.58,3.17,1.74c1.69,1.9,6.28,8.49,13.77,19.78C1847.21,376.97,1851.07,383.4,1851.07,384.56z"/>
	</g>
</g>
</svg>
